<svg xmlns="http://www.w3.org/2000/svg" width="355.798" height="356.094" viewBox="0 0 355.798 356.094">
  <g id="comet" transform="translate(-0.255)">
    <g id="グループ化_1" data-name="グループ化 1" transform="translate(0.255)">
      <path id="パス_1" data-name="パス 1" d="M90.874,314.281A87.459,87.459,0,1,0,94.5,283.375a16.48,16.48,0,1,1-3.628,30.906Zm96.337,2.594a17.862,17.862,0,1,1,0,25.261A17.861,17.861,0,0,1,187.211,316.875Zm-33.041-67.841a15.219,15.219,0,1,1,0,21.523A15.218,15.218,0,0,1,154.171,249.034Zm-25.3,76.648a13.589,13.589,0,1,1,0,19.218A13.59,13.59,0,0,1,128.868,325.682Z" transform="translate(-38.147 -92.539)" fill="#fff"/>
      <path id="パス_2" data-name="パス 2" d="M229.18,313.294A161.808,161.808,0,0,0,240.17,299.1c6.528-9.406,13.136-18.874,19.123-28.635l3.68-5.775c2.464-3.845,4.86-7.721,7.268-11.588,2.391-3.879,43.664-74.541,48.036-82.5q3.288-5.967,6.54-11.954l6.424-12.018c4.25-8.031,8.508-16.053,12.617-24.163s8.231-16.209,12.2-24.4c-5.606,7.176-11.059,14.442-16.514,21.7L323.271,141.6l-16.137,21.885-16.079,21.89s-59.2,79.6-64.7,86.637l-4.118,5.259c-33.62,42.941-92.772,60.448-141.128,30a103.153,103.153,0,0,1-17.9-14.252,104.256,104.256,0,0,1-29.989-72.6c-.12-33.116,15.42-61.6,40.561-82.3l5.174-4.174,5.25-4.138c7.006-5.525,14.138-10.973,21.295-16.409,3.56-2.739,7.178-5.419,10.779-8.12s98.169-72.514,98.169-72.514L236.279,16.5c7.267-5.453,14.534-10.9,21.709-16.5C249.8,3.971,241.7,8.09,233.6,12.207s-16.121,8.372-24.15,12.629L197.436,31.27q-5.986,3.254-11.947,6.551c-7.959,4.378-15.9,8.788-23.783,13.309-7.9,4.488-15.783,9.012-23.6,13.65-3.915,2.312-42.784,26-46.625,28.478s-7.7,4.895-11.515,7.435-7.661,5-11.451,7.616l-5.7,3.888-5.685,3.973c-12.619,8.819-23.641,18.714-32.625,31.291A130.593,130.593,0,0,0,1.724,204.023,132.868,132.868,0,0,0,.316,219.4a138.7,138.7,0,0,0,.4,15.455,132.778,132.778,0,0,0,6.17,30.32,126.383,126.383,0,0,0,5.705,14.446,132.577,132.577,0,0,0,26.092,37.512s.507.506.511.5a136.118,136.118,0,0,0,23.81,18.751,132.737,132.737,0,0,0,58.474,19.251,138.792,138.792,0,0,0,15.46.4,131.144,131.144,0,0,0,71.967-24.189A116.634,116.634,0,0,0,229.18,313.294Z" transform="translate(-0.255)" fill="#fff"/>
      <path id="パス_3" data-name="パス 3" d="M245.372,104.051c27.669-.2,50.436,11.361,50.436,11.361l97.846-113.3Z" transform="translate(-102.749 -0.885)" fill="#fff"/>
      <path id="パス_4" data-name="パス 4" d="M529.541,112.861l-113.3,97.846s11.564,22.767,11.361,50.436Z" transform="translate(-174.199 -47.192)" fill="#fff"/>
    </g>
  </g>
</svg>
